<svg xmlns="http://www.w3.org/2000/svg" fill="context-fill #1E293B" viewBox="0 0 204 60">
  <path transform="scale(0.024194)" d="M571 1984 49 494H388L626 1213Q669 1349 713.0 1512.5Q757 1676 806 1870H740Q788 1674 830.0 1511.5Q872 1349 913 1213L1143 494H1480L970 1984Z M1969 2006Q1863 2006 1778.5 1968.5Q1694 1931 1645.5 1856.5Q1597 1782 1597 1671Q1597 1578 1631.5 1515.0Q1666 1452 1725.5 1414.0Q1785 1376 1860.5 1356.0Q1936 1336 2019 1328Q2116 1318 2175.5 1309.5Q2235 1301 2262.5 1282.5Q2290 1264 2290 1228V1223Q2290 1175 2270.0 1142.0Q2250 1109 2210.5 1091.5Q2171 1074 2115 1074Q2057 1074 2014.0 1091.5Q1971 1109 1944.0 1138.0Q1917 1167 1904 1203L1629 1158Q1658 1060 1725.0 992.0Q1792 924 1891.5 888.0Q1991 852 2116 852Q2206 852 2291.0 873.5Q2376 895 2443.5 940.0Q2511 985 2550.5 1057.5Q2590 1130 2590 1231V1984H2306V1829H2296Q2269 1881 2224.0 1920.5Q2179 1960 2115.5 1983.0Q2052 2006 1969 2006ZM2054 1795Q2125 1795 2178.5 1767.0Q2232 1739 2262.0 1691.0Q2292 1643 2292 1584V1463Q2279 1473 2252.0 1481.0Q2225 1489 2192.0 1495.0Q2159 1501 2127.0 1506.0Q2095 1511 2070 1514Q2015 1522 1973.0 1540.0Q1931 1558 1908.0 1587.5Q1885 1617 1885 1663Q1885 1706 1907.0 1735.5Q1929 1765 1967.0 1780.0Q2005 1795 2054 1795Z M3146 1337V1984H2846V866H3129L3134 1145H3116Q3160 1005 3249.5 928.5Q3339 852 3481 852Q3597 852 3683.5 902.5Q3770 953 3817.5 1047.5Q3865 1142 3865 1273V1984H3565V1325Q3565 1221 3511.5 1162.0Q3458 1103 3363 1103Q3300 1103 3250.5 1130.5Q3201 1158 3173.5 1210.0Q3146 1262 3146 1337Z M4676 866V1095H4013V866ZM4167 600H4467V1657Q4467 1710 4490.5 1735.5Q4514 1761 4569 1761Q4586 1761 4617.0 1756.5Q4648 1752 4664 1748L4707 1973Q4657 1988 4607.5 1994.0Q4558 2000 4513 2000Q4345 2000 4256.0 1918.0Q4167 1836 4167 1683Z M5183 2006Q5077 2006 4992.5 1968.5Q4908 1931 4859.5 1856.5Q4811 1782 4811 1671Q4811 1578 4845.5 1515.0Q4880 1452 4939.5 1414.0Q4999 1376 5074.5 1356.0Q5150 1336 5233 1328Q5330 1318 5389.5 1309.5Q5449 1301 5476.5 1282.5Q5504 1264 5504 1228V1223Q5504 1175 5484.0 1142.0Q5464 1109 5424.5 1091.5Q5385 1074 5329 1074Q5271 1074 5228.0 1091.5Q5185 1109 5158.0 1138.0Q5131 1167 5118 1203L4843 1158Q4872 1060 4939.0 992.0Q5006 924 5105.5 888.0Q5205 852 5330 852Q5420 852 5505.0 873.5Q5590 895 5657.5 940.0Q5725 985 5764.5 1057.5Q5804 1130 5804 1231V1984H5520V1829H5510Q5483 1881 5438.0 1920.5Q5393 1960 5329.5 1983.0Q5266 2006 5183 2006ZM5268 1795Q5339 1795 5392.5 1767.0Q5446 1739 5476.0 1691.0Q5506 1643 5506 1584V1463Q5493 1473 5466.0 1481.0Q5439 1489 5406.0 1495.0Q5373 1501 5341.0 1506.0Q5309 1511 5284 1514Q5229 1522 5187.0 1540.0Q5145 1558 5122.0 1587.5Q5099 1617 5099 1663Q5099 1706 5121.0 1735.5Q5143 1765 5181.0 1780.0Q5219 1795 5268 1795Z M6557 2426Q6417 2426 6313.0 2390.5Q6209 2355 6144.0 2293.0Q6079 2231 6054 2152L6312 2080Q6326 2111 6355.5 2140.5Q6385 2170 6434.0 2189.0Q6483 2208 6555 2208Q6670 2208 6735.5 2155.5Q6801 2103 6801 1992V1786H6778Q6758 1831 6720.0 1873.0Q6682 1915 6620.5 1941.5Q6559 1968 6468 1968Q6342 1968 6239.0 1909.0Q6136 1850 6074.5 1729.0Q6013 1608 6013 1423Q6013 1234 6075.5 1107.0Q6138 980 6241.5 916.0Q6345 852 6469 852Q6563 852 6627.0 883.5Q6691 915 6730.5 962.5Q6770 1010 6790 1054H6803V866H7098V1975Q7098 2126 7028.5 2226.0Q6959 2326 6837.0 2376.0Q6715 2426 6557 2426ZM6562 1740Q6639 1740 6692.5 1702.0Q6746 1664 6774.0 1592.5Q6802 1521 6802 1421Q6802 1322 6774.0 1248.0Q6746 1174 6692.5 1133.0Q6639 1092 6562 1092Q6483 1092 6429.5 1134.5Q6376 1177 6348.5 1251.0Q6321 1325 6321 1421Q6321 1519 6348.5 1590.5Q6376 1662 6430.0 1701.0Q6484 1740 6562 1740Z M7859 2006Q7688 2006 7564.0 1936.0Q7440 1866 7373.5 1737.0Q7307 1608 7307 1431Q7307 1258 7373.0 1128.0Q7439 998 7560.0 925.0Q7681 852 7844 852Q7954 852 8049.0 887.0Q8144 922 8216.0 992.5Q8288 1063 8328.5 1169.0Q8369 1275 8369 1419V1503H7430V1315H8222L8082 1365Q8082 1278 8055.5 1213.5Q8029 1149 7976.5 1113.5Q7924 1078 7847 1078Q7769 1078 7714.5 1114.0Q7660 1150 7632.0 1211.5Q7604 1273 7604 1352V1485Q7604 1582 7636.5 1648.0Q7669 1714 7727.5 1747.0Q7786 1780 7864 1780Q7917 1780 7960.0 1765.0Q8003 1750 8033.5 1720.5Q8064 1691 8080 1648L8352 1699Q8325 1791 8258.0 1860.5Q8191 1930 8090.5 1968.0Q7990 2006 7859 2006Z"/>
</svg>